<?xml version="1.0" standalone="no"?>
<svg viewBox="0 0 200 200" xmlns="http://www.w3.org/2000/svg">
  <path fill="#000000" d="M40.2,-72.1C50.8,-63.5,57.2,-50.1,64.7,-37.3C72.2,-24.5,80.9,-12.2,83.4,1.4C85.9,15.1,82.3,30.3,74,41.8C65.7,53.3,52.8,61.2,39.7,69.5C26.6,77.9,13.3,86.7,0.7,85.5C-12,84.4,-23.9,73.3,-36.4,64.6C-48.9,55.9,-61.9,49.6,-70.5,39.2C-79,28.8,-83.1,14.4,-81.8,0.7C-80.6,-13,-74,-26,-67.2,-39.2C-60.3,-52.5,-53.1,-66,-41.8,-74.1C-30.6,-82.3,-15.3,-85.1,-0.2,-84.7C14.8,-84.2,29.6,-80.6,40.2,-72.1Z" transform="translate(100 100)" />
</svg>
